<svg width="361" height="480" viewbox="0 0 361 480" fill="none" xmlns="http://www.w3.org/2000/svg">
    <rect x="200.203" y="478.102" width="199" height="279" transform="rotate(-180 200.203 478.102)" stroke="#3F3946"/>
    <path d="M1.22814 478.602C1.22814 423.795 45.6584 379.365 100.466 379.365C155.273 379.365 199.704 423.795 199.704 478.602" stroke="#3F3946"/>
    <rect x="200.203" y="328.102" width="199" height="129" transform="rotate(-180 200.203 328.102)" stroke="#3F3946"/>
    <line x1="200.349" y1="328.956" x2="70.4043" y2="199.011" stroke="#3F3946"/>
    <line x1="91.0562" y1="218.956" x2="1.05619" y2="308.956" stroke="#3F3946"/>
    <rect x="360.203" y="478.102" width="159.999" height="149" transform="rotate(-180 360.203 478.102)" stroke="#3F3946"/>
    <circle cx="309.055" cy="458.141" r="19.9609" transform="rotate(-180 309.055 458.141)" stroke="#3F3946"/>
    <circle cx="219.678" cy="374.302" r="19.5" transform="rotate(-180 219.678 374.302)" stroke="#3F3946"/>
    <circle cx="305.703" cy="383.602" r="54.5" transform="rotate(-180 305.703 383.602)" stroke="#3F3946"/>
    <line x1="360.361" y1="478.967" x2="200.361" y2="328.967" stroke="#3F3946"/>
    <rect x="200.203" y="199.097" width="198.474" height="198.597" transform="rotate(-180 200.203 199.097)" stroke="#3F3946"/>
    <circle cx="142.222" cy="141.284" r="57.8135" transform="rotate(-180 142.222 141.284)" stroke="#3F3946"/>
    <circle cx="78.8015" cy="77.5737" r="77.0735" transform="rotate(-180 78.8015 77.5737)" stroke="#3F3946"/>
    <line x1="200.182" y1="198.323" x2="3.05068" y2="1.1915" stroke="#3F3946"/>
    <line x1="201.056" y1="0.353736" x2="101.26" y2="100.15" stroke="#3F3946"/>
    <circle cx="33.4463" cy="231.346" r="32.2437" transform="rotate(-180 33.4463 231.346)" stroke="#3F3946"/>
    <line x1="100.203" y1="478.602" x2="100.203" y2="328.602" stroke="#3F3946"/>
  </svg>