<svg width="361" height="480" viewbox="0 0 361 480" fill="none" xmlns="http://www.w3.org/2000/svg">
    <rect x="161.216" y="1.46045" width="199" height="279" stroke="#3F3946"/>
    <path d="M360.191 0.960493C360.191 55.768 315.761 100.198 260.953 100.198C206.146 100.198 161.715 55.768 161.715 0.960502" stroke="#3F3946"/>
    <rect x="161.216" y="151.46" width="199" height="129" stroke="#3F3946"/>
    <line x1="161.07" y1="150.607" x2="291.015" y2="280.552" stroke="#3F3946"/>
    <line x1="270.363" y1="260.607" x2="360.363" y2="170.607" stroke="#3F3946"/>
    <rect x="1.21631" y="1.46045" width="159.999" height="149" stroke="#3F3946"/>
    <circle cx="52.3638" cy="21.4214" r="19.9609" stroke="#3F3946"/>
    <circle cx="141.741" cy="105.26" r="19.5" stroke="#3F3946"/>
    <circle cx="55.7163" cy="95.9604" r="54.5" stroke="#3F3946"/>
    <line x1="1.05828" y1="0.595681" x2="161.058" y2="150.596" stroke="#3F3946"/>
    <rect x="161.216" y="280.466" width="198.474" height="198.597" stroke="#3F3946"/>
    <circle cx="219.197" cy="338.279" r="57.8135" stroke="#3F3946"/>
    <circle cx="282.617" cy="401.989" r="77.0735" stroke="#3F3946"/>
    <line x1="161.237" y1="281.239" x2="358.368" y2="478.371" stroke="#3F3946"/>
    <line x1="160.363" y1="479.209" x2="260.159" y2="379.412" stroke="#3F3946"/>
    <circle cx="327.973" cy="248.217" r="32.2437" stroke="#3F3946"/>
    <line x1="261.216" y1="0.960449" x2="261.216" y2="150.96" stroke="#3F3946"/>
  </svg>