<svg width="361" height="480" viewBox="0 0 361 480" fill="none" xmlns="http://www.w3.org/2000/svg">
<rect x="160.575" y="1.5" width="199" height="279" stroke="#3F3946"/>
<path d="M359.549 1.00004C359.549 55.8075 315.119 100.238 260.312 100.238C205.504 100.238 161.074 55.8075 161.074 1.00005" stroke="#3F3946"/>
<rect x="160.575" y="151.5" width="199" height="129" stroke="#3F3946"/>
<line x1="160.429" y1="150.646" x2="290.373" y2="280.591" stroke="#3F3946"/>
<line x1="269.721" y1="260.646" x2="359.721" y2="170.646" stroke="#3F3946"/>
<rect x="0.574951" y="1.5" width="159.999" height="149" stroke="#3F3946"/>
<circle cx="51.7224" cy="21.4609" r="19.9609" stroke="#3F3946"/>
<circle cx="141.099" cy="105.3" r="19.5" stroke="#3F3946"/>
<circle cx="55.075" cy="96" r="54.5" stroke="#3F3946"/>
<line x1="0.416922" y1="0.635231" x2="160.417" y2="150.635" stroke="#3F3946"/>
<rect x="160.575" y="280.505" width="198.474" height="198.597" stroke="#3F3946"/>
<circle cx="218.555" cy="338.319" r="57.8135" stroke="#3F3946"/>
<circle cx="281.976" cy="402.029" r="77.0735" stroke="#3F3946"/>
<line x1="160.595" y1="281.279" x2="357.727" y2="478.411" stroke="#3F3946"/>
<line x1="159.721" y1="479.248" x2="259.518" y2="379.452" stroke="#3F3946"/>
<circle cx="327.331" cy="248.256" r="32.2437" stroke="#3F3946"/>
<line x1="260.575" y1="1" x2="260.575" y2="151" stroke="#3F3946"/>
</svg>
