<svg width="361" height="480" viewBox="0 0 361 480" fill="none" xmlns="http://www.w3.org/2000/svg">
<rect x="160.756" y="1.5" width="199" height="279" stroke="#3F3946"/>
<path d="M359.731 1.00004C359.731 55.8075 315.301 100.238 260.493 100.238C205.686 100.238 161.255 55.8075 161.255 1.00005" stroke="#3F3946"/>
<rect x="160.756" y="151.5" width="199" height="129" stroke="#3F3946"/>
<line x1="160.61" y1="150.647" x2="290.555" y2="280.591" stroke="#3F3946"/>
<line x1="269.903" y1="260.647" x2="359.903" y2="170.647" stroke="#3F3946"/>
<rect x="0.75647" y="1.50006" width="159.999" height="149" stroke="#3F3946"/>
<circle cx="51.9039" cy="21.461" r="19.9609" stroke="#3F3946"/>
<circle cx="141.281" cy="105.3" r="19.5" stroke="#3F3946"/>
<circle cx="55.2565" cy="96.0001" r="54.5" stroke="#3F3946"/>
<line x1="0.59844" y1="0.635292" x2="160.598" y2="150.635" stroke="#3F3946"/>
<rect x="160.756" y="280.505" width="198.474" height="198.597" stroke="#3F3946"/>
<circle cx="218.737" cy="338.319" r="57.8135" stroke="#3F3946"/>
<circle cx="282.158" cy="402.029" r="77.0735" stroke="#3F3946"/>
<line x1="160.777" y1="281.279" x2="357.908" y2="478.411" stroke="#3F3946"/>
<line x1="159.903" y1="479.249" x2="259.7" y2="379.452" stroke="#3F3946"/>
<circle cx="327.513" cy="248.256" r="32.2437" stroke="#3F3946"/>
<line x1="260.756" y1="1.00006" x2="260.756" y2="151" stroke="#3F3946"/>
</svg>
