<svg width="361" height="480" viewBox="0 0 361 480" fill="none" xmlns="http://www.w3.org/2000/svg">
<rect x="-0.5" y="0.5" width="199" height="279" transform="matrix(-1 8.74228e-08 8.74228e-08 1 199.003 1.39778)" stroke="#3F3946"/>
<path d="M0.528971 1.39785C0.528974 56.2053 44.9592 100.636 99.7667 100.636C154.574 100.636 199.004 56.2053 199.004 1.39784" stroke="#3F3946"/>
<rect x="-0.5" y="0.5" width="199" height="129" transform="matrix(-1 8.74228e-08 8.74228e-08 1 199.003 151.398)" stroke="#3F3946"/>
<line y1="-0.5" x2="183.77" y2="-0.5" transform="matrix(-0.707107 0.707107 0.707107 0.707107 200.003 151.398)" stroke="#3F3946"/>
<line y1="-0.5" x2="127.279" y2="-0.5" transform="matrix(-0.707107 -0.707107 -0.707107 0.707107 90.0035 261.398)" stroke="#3F3946"/>
<rect x="-0.5" y="0.5" width="159.999" height="149" transform="matrix(-1 8.74228e-08 8.74228e-08 1 359.003 1.39783)" stroke="#3F3946"/>
<circle r="19.9609" transform="matrix(-1 8.74228e-08 8.74228e-08 1 308.356 21.8588)" stroke="#3F3946"/>
<circle r="19.5" transform="matrix(-1 8.74228e-08 8.74228e-08 1 218.979 105.698)" stroke="#3F3946"/>
<circle r="54.5" transform="matrix(-1 8.74228e-08 8.74228e-08 1 305.003 96.3978)" stroke="#3F3946"/>
<line y1="-0.5" x2="219.317" y2="-0.5" transform="matrix(-0.729537 0.683941 0.683941 0.729537 360.003 1.39783)" stroke="#3F3946"/>
<rect x="-0.5" y="0.5" width="198.474" height="198.597" transform="matrix(-1 8.74228e-08 8.74228e-08 1 199.003 280.403)" stroke="#3F3946"/>
<circle r="57.8135" transform="matrix(-1 8.74228e-08 8.74228e-08 1 141.523 338.716)" stroke="#3F3946"/>
<circle r="77.0735" transform="matrix(-1 8.74228e-08 8.74228e-08 1 78.1023 402.426)" stroke="#3F3946"/>
<line y1="-0.5" x2="278.786" y2="-0.5" transform="matrix(-0.707107 0.707107 0.707107 0.707107 199.837 282.03)" stroke="#3F3946"/>
<line y1="-0.5" x2="141.134" y2="-0.5" transform="matrix(-0.707107 -0.707107 -0.707107 0.707107 200.003 480)" stroke="#3F3946"/>
<line y1="-0.5" x2="150" y2="-0.5" transform="matrix(1.31134e-07 1 1 -1.31134e-07 100.003 1.39785)" stroke="#3F3946"/>
</svg>
